<?xml version="1.0" encoding="utf-8"?>
<!-- Svg Vector Icons : http://www.onlinewebfonts.com/icon -->
<!DOCTYPE svg PUBLIC "-//W3C//DTD SVG 1.1//EN" "http://www.w3.org/Graphics/SVG/1.1/DTD/svg11.dtd">
<svg version="1.1" xmlns="http://www.w3.org/2000/svg" xmlns:xlink="http://www.w3.org/1999/xlink" x="0px" y="0px" viewBox="0 0 1000 1000" enable-background="new 0 0 1000 1000" xml:space="preserve">
<metadata> Svg Vector Icons : http://www.onlinewebfonts.com/icon </metadata>
<g><g transform="translate(0.000000,511.000000) scale(0.100000,-0.100000)"><path d="M2534.2,4993.2c-461.8-53.7-949.4-252.8-1341.5-547.4c-195.1-147.3-497.6-465.7-630.9-668.8c-199-300.5-348.3-658.8-425.9-1031C102,2588.8,100,2397.7,100,108.8c0-2296.9,2-2480,35.8-2643.2c230.9-1132.5,1078.8-1978.4,2223.2-2217.3c157.2-33.8,348.3-35.8,2637.2-35.8h2468.1l207,45.8c575.2,129.4,987.2,352.3,1397.2,760.3c410,404,642.9,830,780.2,1423.1c41.8,175.1,41.8,232.9,49.7,2527.8c4,1638.1,0,2408.3-15.9,2547.7c-75.6,672.7-366.2,1263.9-853.9,1727.6c-380.2,362.2-816.1,589.1-1365.4,716.5c-175.1,41.8-224.9,41.8-2577.5,45.8C3766.3,5009.1,2619.8,5003.1,2534.2,4993.2z M5274.9,3689.5c246.8-63.7,447.8-228.9,563.3-463.8l73.6-149.3l6-1230l6-1230h332.4c296.6,0,338.4-4,398.1-39.8c139.3-85.6,129.4-209-37.8-455.8C6499-52.4,6019.4-669.4,5551.6-1244.6c-141.3-175.1-278.7-348.3-304.6-382.2c-23.9-35.8-83.6-87.6-129.4-115.4c-189.1-111.5-207-95.5-867.8,726.5C3388.1,61,3234.8,276,3234.8,421.3c0,33.8,23.9,81.6,57.7,119.4l57.7,65.7l350.3,6l350.3,6v1148.4c0,1226.1,6,1291.8,101.5,1480.8c59.7,115.4,236.9,298.6,354.3,360.3c51.8,29.9,143.3,65.7,203,81.6C4853,3729.3,5129.7,3729.3,5274.9,3689.5z M7784.8-2299.5c354.3-105.5,533.4-521.5,372.2-861.8c-55.7-119.4-203-250.8-332.4-300.6l-113.4-41.8l-2750.7,4l-2750.7,6l-101.5,53.7c-487.6,256.7-439.9,955.4,77.6,1132.5c97.5,33.8,264.7,35.8,2802.4,37.8C7317.1-2269.7,7699.2-2273.7,7784.8-2299.5z"/></g></g>
</svg>